<svg width="112.75" height="18.1" viewBox="0 0 112.75 18.1" xmlns="http://www.w3.org/2000/svg"><g id="svgGroup" stroke-linecap="round" fill-rule="evenodd" font-size="9pt" stroke="#ffffff" stroke-width="0.25mm" fill="#ffffff" style="stroke:#ffffff;stroke-width:0.25mm;fill:#ffffff"><path d="M 49.225 8.575 L 53.35 12.5 Q 53.675 11.925 53.825 11.263 Q 53.975 10.6 54.113 9.938 A 5.056 5.056 0 0 1 54.338 9.158 A 4.274 4.274 0 0 1 54.525 8.738 A 2.095 2.095 0 0 1 55.316 7.896 A 2.506 2.506 0 0 1 55.35 7.875 Q 55.9 7.55 56.85 7.55 L 57.4 9.325 A 2.099 2.099 0 0 0 56.978 9.365 Q 56.735 9.414 56.552 9.527 A 1.035 1.035 0 0 0 56.275 9.775 A 2.485 2.485 0 0 0 55.958 10.319 Q 55.839 10.594 55.763 10.925 A 111.938 111.938 0 0 1 55.505 12.01 A 127.701 127.701 0 0 1 55.412 12.388 Q 55.225 13.15 54.8 13.8 L 57.75 16.5 L 56.35 18 L 53.7 15.5 Q 52.7 16.65 51.438 17.375 A 5.215 5.215 0 0 1 49.93 17.941 Q 49.284 18.08 48.54 18.098 A 9.182 9.182 0 0 1 48.325 18.1 A 6.665 6.665 0 0 1 46.422 17.835 A 5.989 5.989 0 0 1 45.575 17.513 A 5.127 5.127 0 0 1 44.036 16.423 A 4.845 4.845 0 0 1 43.575 15.863 A 4.096 4.096 0 0 1 42.851 13.88 A 5.218 5.218 0 0 1 42.825 13.35 Q 42.825 11.775 43.625 10.5 A 5.308 5.308 0 0 1 44.526 9.432 Q 44.991 9.002 45.599 8.606 A 11.02 11.02 0 0 1 46.275 8.2 Q 45.35 7.175 44.888 6.275 A 4.154 4.154 0 0 1 44.475 4.942 A 5.349 5.349 0 0 1 44.425 4.2 A 4.588 4.588 0 0 1 44.61 2.88 A 4.013 4.013 0 0 1 44.963 2.05 Q 45.5 1.1 46.5 0.55 A 4.381 4.381 0 0 1 47.925 0.071 A 5.801 5.801 0 0 1 48.85 0 A 5.934 5.934 0 0 1 49.879 0.085 Q 50.482 0.191 50.978 0.431 A 3.578 3.578 0 0 1 51.138 0.513 A 3.864 3.864 0 0 1 52.118 1.263 A 3.477 3.477 0 0 1 52.575 1.875 Q 53.075 2.725 53.075 3.75 A 4.603 4.603 0 0 1 52.858 5.189 A 3.936 3.936 0 0 1 52.15 6.475 A 5.773 5.773 0 0 1 51.305 7.298 Q 50.475 7.966 49.225 8.575 Z M 76.625 13.25 L 76.625 4.8 L 78.875 4.8 L 78.875 12.95 Q 78.875 13.967 79.164 14.667 A 2.534 2.534 0 0 0 79.525 15.288 A 2.101 2.101 0 0 0 80.803 16.043 A 3.202 3.202 0 0 0 81.425 16.1 Q 82.45 16.1 83.413 15.688 Q 84.375 15.275 85.125 14.575 L 85.125 4.8 L 87.375 4.8 L 87.375 14.425 A 3.9 3.9 0 0 0 87.4 14.888 Q 87.483 15.579 87.838 15.838 Q 88.3 16.175 88.85 16.175 L 88.375 17.925 Q 86.05 17.925 85.5 16.075 Q 84.625 16.975 83.475 17.538 Q 82.325 18.1 81 18.1 Q 79.875 18.1 78.875 17.625 A 3.61 3.61 0 0 1 77.498 16.465 A 4.567 4.567 0 0 1 77.25 16.088 Q 76.76 15.255 76.654 13.986 A 8.843 8.843 0 0 1 76.625 13.25 Z M 104.075 17.8 L 101.825 17.8 L 101.825 4.8 L 104 4.8 L 104 6.975 Q 104.7 5.925 105.788 5.213 A 4.329 4.329 0 0 1 107.564 4.556 A 5.657 5.657 0 0 1 108.375 4.5 A 5.806 5.806 0 0 1 109.641 4.629 Q 110.477 4.816 111.086 5.273 A 3.315 3.315 0 0 1 111.662 5.825 A 4.601 4.601 0 0 1 112.564 7.67 Q 112.727 8.33 112.747 9.102 A 8.441 8.441 0 0 1 112.75 9.325 L 112.75 17.8 L 110.5 17.8 L 110.5 9.575 Q 110.5 8.427 110.055 7.649 A 2.741 2.741 0 0 0 109.838 7.325 A 2.145 2.145 0 0 0 108.268 6.487 A 3.015 3.015 0 0 0 108 6.475 A 3.28 3.28 0 0 0 106.288 6.966 A 4.338 4.338 0 0 0 105.825 7.288 Q 104.8 8.1 104.075 9.2 L 104.075 17.8 Z M 40.325 16.575 L 38.625 18.025 L 34.25 12.6 L 29.925 17.975 L 28.325 16.575 L 32.95 11.2 L 28.5 6.05 L 30.25 4.525 L 34.275 9.725 L 38.225 4.625 L 39.9 6.05 L 35.575 11.1 L 40.325 16.575 Z M 0 17.75 L 0 0.35 A 25.227 25.227 0 0 1 0.464 0.302 Q 1.2 0.231 2.175 0.175 A 42.104 42.104 0 0 1 3.384 0.124 Q 4.208 0.1 5.15 0.1 Q 7.25 0.1 8.715 0.622 A 5.651 5.651 0 0 1 10.075 1.313 Q 11.8 2.525 11.8 4.6 Q 11.8 5.975 11.063 6.938 A 4.572 4.572 0 0 1 10.092 7.865 Q 9.645 8.186 9.087 8.451 A 7.916 7.916 0 0 1 8.925 8.525 A 7.554 7.554 0 0 1 10.084 9.04 Q 10.953 9.524 11.5 10.188 A 3.813 3.813 0 0 1 12.342 12.213 A 5.028 5.028 0 0 1 12.375 12.8 Q 12.375 15.129 10.572 16.532 A 5.746 5.746 0 0 1 10.5 16.588 Q 9.106 17.638 6.771 17.907 A 15.049 15.049 0 0 1 5.05 18 A 55.459 55.459 0 0 1 3.03 17.965 A 46.893 46.893 0 0 1 2.163 17.925 A 56.864 56.864 0 0 1 1.516 17.886 Q 0.6 17.825 0 17.75 Z M 61.25 17.75 L 61.25 0.35 A 25.227 25.227 0 0 1 61.714 0.302 Q 62.45 0.231 63.425 0.175 A 42.104 42.104 0 0 1 64.634 0.124 Q 65.458 0.1 66.4 0.1 Q 68.5 0.1 69.965 0.622 A 5.651 5.651 0 0 1 71.325 1.313 Q 73.05 2.525 73.05 4.6 Q 73.05 5.975 72.313 6.938 A 4.572 4.572 0 0 1 71.342 7.865 Q 70.895 8.186 70.337 8.451 A 7.916 7.916 0 0 1 70.175 8.525 A 7.554 7.554 0 0 1 71.334 9.04 Q 72.203 9.524 72.75 10.188 A 3.813 3.813 0 0 1 73.592 12.213 A 5.028 5.028 0 0 1 73.625 12.8 Q 73.625 15.129 71.822 16.532 A 5.746 5.746 0 0 1 71.75 16.588 Q 70.356 17.638 68.021 17.907 A 15.049 15.049 0 0 1 66.3 18 A 55.459 55.459 0 0 1 64.28 17.965 A 46.893 46.893 0 0 1 63.413 17.925 A 56.864 56.864 0 0 1 62.766 17.886 Q 61.85 17.825 61.25 17.75 Z M 94.1 17.8 L 91.85 17.8 L 91.85 4.8 L 94.025 4.8 L 94.025 7.625 Q 94.35 6.8 94.9 6.088 Q 95.45 5.375 96.275 4.938 A 3.704 3.704 0 0 1 97.445 4.557 A 4.865 4.865 0 0 1 98.2 4.5 Q 98.575 4.5 98.95 4.538 Q 99.233 4.566 99.445 4.616 A 2.204 2.204 0 0 1 99.575 4.65 L 98.9 6.975 Q 98.447 6.784 97.834 6.775 A 4.148 4.148 0 0 0 97.775 6.775 Q 96.85 6.775 96.013 7.3 Q 95.175 7.825 94.638 8.925 A 4.83 4.83 0 0 0 94.27 10.002 Q 94.154 10.523 94.117 11.132 A 9.772 9.772 0 0 0 94.1 11.725 L 94.1 17.8 Z M 18.815 17.765 A 6.804 6.804 0 0 0 20.975 18.1 A 7.682 7.682 0 0 0 21.544 18.079 A 6.314 6.314 0 0 0 24.288 17.25 Q 25.75 16.4 26.6 14.863 A 6.564 6.564 0 0 0 27.263 13.077 A 8.546 8.546 0 0 0 27.45 11.25 A 8.635 8.635 0 0 0 27.329 9.773 A 6.449 6.449 0 0 0 26.588 7.663 Q 25.725 6.15 24.263 5.325 A 6.212 6.212 0 0 0 23.102 4.818 A 6.934 6.934 0 0 0 20.975 4.5 Q 19.15 4.5 17.675 5.325 Q 16.2 6.15 15.35 7.675 A 6.506 6.506 0 0 0 14.663 9.573 A 8.751 8.751 0 0 0 14.5 11.3 A 8.705 8.705 0 0 0 14.566 12.388 A 6.863 6.863 0 0 0 15.338 14.838 Q 16.175 16.375 17.65 17.238 A 6.14 6.14 0 0 0 18.815 17.765 Z M 20.975 16.1 Q 22.95 16.1 24.05 14.763 Q 25.15 13.425 25.15 11.3 A 5.344 5.344 0 0 0 24.844 9.479 A 5.004 5.004 0 0 0 24.6 8.913 A 4.799 4.799 0 0 0 23.557 7.52 A 4.543 4.543 0 0 0 23.112 7.163 Q 22.175 6.5 20.975 6.5 A 4.812 4.812 0 0 0 19.668 6.668 A 3.509 3.509 0 0 0 17.9 7.8 A 4.47 4.47 0 0 0 16.982 9.643 Q 16.817 10.308 16.802 11.088 A 8.217 8.217 0 0 0 16.8 11.25 Q 16.8 12.55 17.35 13.663 Q 17.9 14.775 18.838 15.438 Q 19.775 16.1 20.975 16.1 Z M 5.225 9.7 L 2.375 9.7 L 2.375 15.875 A 23.546 23.546 0 0 0 4.109 16.004 A 28.79 28.79 0 0 0 5.225 16.025 Q 7.45 16.025 8.7 15.225 Q 9.95 14.425 9.95 12.9 A 2.932 2.932 0 0 0 9.732 11.75 Q 9.433 11.041 8.725 10.55 A 4.175 4.175 0 0 0 7.556 10 Q 7.005 9.831 6.336 9.757 A 10.155 10.155 0 0 0 5.225 9.7 Z M 66.475 9.7 L 63.625 9.7 L 63.625 15.875 A 23.546 23.546 0 0 0 65.359 16.004 A 28.79 28.79 0 0 0 66.475 16.025 Q 68.7 16.025 69.95 15.225 Q 71.2 14.425 71.2 12.9 A 2.932 2.932 0 0 0 70.982 11.75 Q 70.683 11.041 69.975 10.55 A 4.175 4.175 0 0 0 68.806 10 Q 68.255 9.831 67.586 9.757 A 10.155 10.155 0 0 0 66.475 9.7 Z M 2.375 2.15 L 2.375 7.85 L 5.125 7.85 A 7.665 7.665 0 0 0 6.383 7.753 Q 7.046 7.643 7.584 7.407 A 3.815 3.815 0 0 0 8.263 7.025 A 3.047 3.047 0 0 0 8.948 6.371 A 2.389 2.389 0 0 0 9.425 4.9 A 2.699 2.699 0 0 0 9.256 3.925 Q 9.004 3.268 8.373 2.828 A 3.078 3.078 0 0 0 8.275 2.763 Q 7.395 2.198 6.018 2.066 A 9.331 9.331 0 0 0 5.125 2.025 Q 4.3 2.025 3.625 2.063 Q 2.95 2.1 2.375 2.15 Z M 63.625 2.15 L 63.625 7.85 L 66.375 7.85 A 7.665 7.665 0 0 0 67.633 7.753 Q 68.296 7.643 68.834 7.407 A 3.815 3.815 0 0 0 69.513 7.025 A 3.047 3.047 0 0 0 70.198 6.371 A 2.389 2.389 0 0 0 70.675 4.9 A 2.699 2.699 0 0 0 70.506 3.925 Q 70.254 3.268 69.623 2.828 A 3.078 3.078 0 0 0 69.525 2.763 Q 68.645 2.198 67.268 2.066 A 9.331 9.331 0 0 0 66.375 2.025 Q 65.55 2.025 64.875 2.063 Q 64.2 2.1 63.625 2.15 Z M 52.325 14.125 L 47.4 9.4 A 8.215 8.215 0 0 0 46.625 10.015 Q 46.085 10.502 45.75 11.013 A 3.313 3.313 0 0 0 45.255 12.315 A 4.411 4.411 0 0 0 45.2 13.025 A 2.825 2.825 0 0 0 45.508 14.349 A 2.917 2.917 0 0 0 46.175 15.188 A 3.385 3.385 0 0 0 47.893 15.987 A 4.695 4.695 0 0 0 48.675 16.05 Q 49.75 16.05 50.688 15.538 A 5.225 5.225 0 0 0 52.225 14.25 A 6.023 6.023 0 0 0 52.325 14.125 Z M 50.273 5.876 A 3.282 3.282 0 0 0 50.337 5.8 Q 51 5 51 3.975 Q 51 3.075 50.4 2.438 A 1.994 1.994 0 0 0 49.175 1.824 A 2.804 2.804 0 0 0 48.8 1.8 A 2.426 2.426 0 0 0 47.966 1.939 A 2.135 2.135 0 0 0 47.15 2.475 A 2.303 2.303 0 0 0 46.508 3.955 A 3.061 3.061 0 0 0 46.5 4.175 A 3.578 3.578 0 0 0 46.919 5.819 Q 47.192 6.352 47.643 6.883 A 7.96 7.96 0 0 0 48.125 7.4 Q 49.601 6.638 50.273 5.876 Z" vector-effect="non-scaling-stroke"/></g></svg>